<mxfile host="app.diagrams.net" modified="2023-04-17T21:49:17.862Z" agent="Mozilla/5.0 (X11; Ubuntu; Linux x86_64; rv:109.0) Gecko/20100101 Firefox/111.0" etag="SCGRBBIV4hezs9ORYKri" version="21.1.8" type="device">
  <diagram name="Страница 1" id="AWaT62XMGhaTGmUfI5o9">
    <mxGraphModel dx="1360" dy="751" grid="1" gridSize="10" guides="1" tooltips="1" connect="1" arrows="1" fold="1" page="1" pageScale="1" pageWidth="827" pageHeight="1169" math="0" shadow="0">
      <root>
        <mxCell id="0" />
        <mxCell id="1" parent="0" />
        <mxCell id="_8jBreyPY1QzfbfMAoMU-1" value="&lt;font style=&quot;font-size: 16px;&quot;&gt;Зрители&lt;/font&gt;" style="rounded=0;whiteSpace=wrap;html=1;strokeWidth=2;fillColor=#FFCCE6;" parent="1" vertex="1">
          <mxGeometry x="40" y="320" width="120" height="80" as="geometry" />
        </mxCell>
        <mxCell id="_8jBreyPY1QzfbfMAoMU-2" value="&lt;font style=&quot;font-size: 16px;&quot;&gt;Сеансы&lt;/font&gt;" style="rounded=0;whiteSpace=wrap;html=1;strokeWidth=2;fillColor=#CCE5FF;" parent="1" vertex="1">
          <mxGeometry x="480" y="320" width="120" height="80" as="geometry" />
        </mxCell>
        <mxCell id="_8jBreyPY1QzfbfMAoMU-3" value="&lt;font style=&quot;font-size: 16px;&quot;&gt;Залы&lt;/font&gt;" style="rounded=0;whiteSpace=wrap;html=1;strokeWidth=2;fillColor=#CCCCFF;" parent="1" vertex="1">
          <mxGeometry x="480" y="480" width="120" height="80" as="geometry" />
        </mxCell>
        <mxCell id="_8jBreyPY1QzfbfMAoMU-4" value="&lt;font style=&quot;font-size: 16px;&quot;&gt;Билеты&lt;/font&gt;" style="rounded=0;whiteSpace=wrap;html=1;strokeWidth=2;fillColor=#FFCCFF;" parent="1" vertex="1">
          <mxGeometry x="240" y="320" width="120" height="80" as="geometry" />
        </mxCell>
        <mxCell id="_8jBreyPY1QzfbfMAoMU-5" value="&lt;font style=&quot;font-size: 16px;&quot;&gt;Фильмы&lt;/font&gt;" style="rounded=0;whiteSpace=wrap;html=1;strokeWidth=2;fillColor=#CCFFFF;direction=east;" parent="1" vertex="1">
          <mxGeometry x="680" y="320" width="120" height="80" as="geometry" />
        </mxCell>
        <mxCell id="_8jBreyPY1QzfbfMAoMU-6" value="" style="endArrow=ERoneToMany;startArrow=ERzeroToOne;html=1;rounded=0;entryX=0;entryY=0.5;entryDx=0;entryDy=0;strokeWidth=2;startFill=0;endFill=0;exitX=1;exitY=0.5;exitDx=0;exitDy=0;" parent="1" target="_8jBreyPY1QzfbfMAoMU-4" edge="1" source="_8jBreyPY1QzfbfMAoMU-1">
          <mxGeometry width="50" height="50" relative="1" as="geometry">
            <mxPoint x="160" y="360" as="sourcePoint" />
            <mxPoint x="210" y="310" as="targetPoint" />
          </mxGeometry>
        </mxCell>
        <mxCell id="_8jBreyPY1QzfbfMAoMU-8" value="" style="endArrow=ERoneToMany;startArrow=ERmandOne;html=1;rounded=0;entryX=1;entryY=0.5;entryDx=0;entryDy=0;strokeWidth=2;startFill=0;endFill=0;exitX=0;exitY=0.5;exitDx=0;exitDy=0;" parent="1" target="_8jBreyPY1QzfbfMAoMU-2" edge="1" source="_8jBreyPY1QzfbfMAoMU-5">
          <mxGeometry width="50" height="50" relative="1" as="geometry">
            <mxPoint x="490" y="260" as="sourcePoint" />
            <mxPoint x="570" y="190" as="targetPoint" />
            <Array as="points" />
          </mxGeometry>
        </mxCell>
        <mxCell id="eAmYj1TCffblYggk6UAi-1" value="&lt;font style=&quot;font-size: 16px;&quot;&gt;Места&lt;/font&gt;" style="rounded=0;whiteSpace=wrap;html=1;fillColor=#E5CCFF;strokeWidth=2;" vertex="1" parent="1">
          <mxGeometry x="240" y="480" width="120" height="80" as="geometry" />
        </mxCell>
        <mxCell id="eAmYj1TCffblYggk6UAi-3" value="" style="endArrow=ERzeroToMany;startArrow=ERmandOne;html=1;rounded=0;exitX=0.5;exitY=0;exitDx=0;exitDy=0;strokeWidth=2;startFill=0;endFill=0;" edge="1" parent="1" source="eAmYj1TCffblYggk6UAi-1">
          <mxGeometry width="50" height="50" relative="1" as="geometry">
            <mxPoint x="250" y="450" as="sourcePoint" />
            <mxPoint x="300" y="400" as="targetPoint" />
          </mxGeometry>
        </mxCell>
        <mxCell id="eAmYj1TCffblYggk6UAi-4" value="" style="endArrow=ERzeroToMany;startArrow=ERmandOne;html=1;rounded=0;exitX=0.5;exitY=0;exitDx=0;exitDy=0;strokeWidth=2;endFill=0;startFill=0;" edge="1" parent="1" source="_8jBreyPY1QzfbfMAoMU-3">
          <mxGeometry width="50" height="50" relative="1" as="geometry">
            <mxPoint x="490" y="450" as="sourcePoint" />
            <mxPoint x="540" y="400" as="targetPoint" />
          </mxGeometry>
        </mxCell>
        <mxCell id="eAmYj1TCffblYggk6UAi-5" value="" style="endArrow=ERmandOne;startArrow=ERmany;html=1;rounded=0;entryX=0;entryY=0.5;entryDx=0;entryDy=0;endSize=6;strokeWidth=2;startFill=0;endFill=0;" edge="1" parent="1" target="_8jBreyPY1QzfbfMAoMU-3">
          <mxGeometry width="50" height="50" relative="1" as="geometry">
            <mxPoint x="360" y="520" as="sourcePoint" />
            <mxPoint x="410" y="470" as="targetPoint" />
          </mxGeometry>
        </mxCell>
        <mxCell id="eAmYj1TCffblYggk6UAi-6" value="" style="endArrow=ERmandOne;startArrow=ERmany;html=1;rounded=0;entryX=0;entryY=0.5;entryDx=0;entryDy=0;strokeWidth=2;startFill=0;endFill=0;" edge="1" parent="1" target="_8jBreyPY1QzfbfMAoMU-2">
          <mxGeometry width="50" height="50" relative="1" as="geometry">
            <mxPoint x="360" y="360" as="sourcePoint" />
            <mxPoint x="410" y="310" as="targetPoint" />
          </mxGeometry>
        </mxCell>
      </root>
    </mxGraphModel>
  </diagram>
</mxfile>
